<svg width="320" height="320" viewBox="0 0 320 320" fill="none" xmlns="http://www.w3.org/2000/svg">
  <defs>
    <linearGradient id="ring" x1="36" y1="36" x2="284" y2="284" gradientUnits="userSpaceOnUse">
      <stop stop-color="#1A4C93"/>
      <stop offset="1" stop-color="#0A2F66"/>
    </linearGradient>
  </defs>
  <circle cx="160" cy="160" r="154" fill="url(#ring)"/>
  <circle cx="160" cy="160" r="136" fill="white"/>
  <circle cx="160" cy="160" r="116" fill="#0A3B7A"/>
  <path d="M160 82L227 112L216 214H104L93 112L160 82Z" fill="white"/>
  <circle cx="160" cy="127" r="27" fill="#0A3B7A"/>
  <circle cx="160" cy="127" r="13" fill="white"/>
  <path d="M160 161L206 207H184L160 183L136 207H114L160 161Z" fill="#0A3B7A"/>
  <path d="M86 97H112V136H86V97Z" fill="#0A3B7A"/>
  <path d="M94 101H104V132H94V101Z" fill="white"/>
  <path d="M85 101H95V132H85V101Z" fill="white"/>
  <path d="M86 98C93 98 97 99 103 103C108 99 112 98 119 98V108C114 108 110 109 103 113C97 109 92 108 86 108V98Z" fill="white"/>
  <path d="M228 103C214 103 208 111 208 125C208 133 211 141 216 146L221 150L226 145C232 139 236 132 236 124C236 111 229 103 218 103H228Z" fill="#0A3B7A"/>
  <path d="M221 108C216 108 213 112 213 118C213 123 216 129 221 135C225 129 228 123 228 118C228 112 225 108 221 108Z" fill="white"/>
  <path d="M220 131L213 152H227L220 131Z" fill="white"/>
  <path d="M220 111V152" stroke="white" stroke-width="4" stroke-linecap="round"/>
  <text x="160" y="51" text-anchor="middle" font-family="Georgia, 'Times New Roman', serif" font-size="33" font-weight="700" fill="white" letter-spacing="2.5">YONSEI UNIVERSITY</text>
  <text x="160" y="281" text-anchor="middle" font-family="'Malgun Gothic', sans-serif" font-size="29" font-weight="700" fill="white" letter-spacing="4">연 세 대 학 교</text>
  <circle cx="64" cy="159" r="6" fill="white"/>
  <circle cx="256" cy="159" r="6" fill="white"/>
  <rect x="134" y="217" width="52" height="24" rx="12" fill="white"/>
  <text x="160" y="234" text-anchor="middle" font-family="Georgia, 'Times New Roman', serif" font-size="15" font-weight="700" fill="#0A3B7A">1885</text>
</svg>
